<svg width="32" height="32" viewBox="0 0 32 32" fill="none" xmlns="http://www.w3.org/2000/svg">
<rect width="32" height="32" rx="16" fill="#323232"/>
<path d="M22 14.1213V18C22 19.6569 20.6569 21 19 21H13C11.3431 21 10 19.6569 10 18V14.2209C10 13.5466 10.5466 13 11.2209 13C11.9523 13 12.6619 12.7511 13.233 12.2942L14.029 11.6574C14.561 11.2318 15.2219 11 15.9031 11H16.5858C17.2261 11 17.8401 11.2544 18.2929 11.7071L18.6716 12.0858C19.2569 12.6711 20.0509 13 20.8787 13C21.498 13 22 13.502 22 14.1213Z" stroke="white" stroke-width="2"/>
<path d="M18 15H14C12.8954 15 12 15.8954 12 17C12 18.1046 12.8954 19 14 19H18C19.1046 19 20 18.1046 20 17C20 15.8954 19.1046 15 18 15Z" fill="white"/>
</svg>
