<svg width="32" height="32" viewBox="0 0 32 32" fill="none" xmlns="http://www.w3.org/2000/svg">
<rect width="32" height="32" rx="16" fill="#323232"/>
<path d="M16 9.26315V22.7368" stroke="#4BA3F4" stroke-width="2" stroke-linecap="round"/>
<path d="M15.134 9.5C15.5189 8.83333 16.4811 8.83333 16.866 9.5L17.6865 10.9211C18.0714 11.5877 17.5903 12.4211 16.8205 12.4211H15.1796C14.4098 12.4211 13.9286 11.5877 14.3135 10.9211L15.134 9.5Z" fill="#4BA3F4"/>
<path d="M16.866 22.5C16.4811 23.1667 15.5189 23.1667 15.134 22.5L14.3135 21.0789C13.9286 20.4123 14.4098 19.5789 15.1796 19.5789H16.8205C17.5903 19.5789 18.0714 20.4123 17.6865 21.0789L16.866 22.5Z" fill="#4BA3F4"/>
<path d="M9.26315 16H22.7368" stroke="#4BA3F4" stroke-width="2" stroke-linecap="round"/>
<path d="M9.5 16.866C8.83333 16.4811 8.83333 15.5189 9.5 15.134L10.9211 14.3135C11.5877 13.9286 12.4211 14.4098 12.4211 15.1796V16.8205C12.4211 17.5903 11.5877 18.0714 10.9211 17.6865L9.5 16.866Z" fill="#4BA3F4"/>
<path d="M22.5 15.134C23.1667 15.5189 23.1667 16.4811 22.5 16.866L21.0789 17.6865C20.4123 18.0714 19.5789 17.5902 19.5789 16.8204V15.1795C19.5789 14.4097 20.4123 13.9286 21.0789 14.3135L22.5 15.134Z" fill="#4BA3F4"/>
</svg>
