<svg width="32" height="32" viewBox="0 0 32 32" fill="none" xmlns="http://www.w3.org/2000/svg">
<rect width="32" height="32" rx="16" fill="#323232"/>
<path fill-rule="evenodd" clip-rule="evenodd" d="M20 16.5C20 18.9773 17.9981 20.9871 15.5238 20.9999C15.5055 21 15.4872 21 15.4689 20.9999C12.998 20.9832 11 18.9749 11 16.5C11 14.0147 13.0147 12 15.5 12V10C14.8173 10 14.1427 10.1075 13.5 10.3153C12.9326 10.4988 12.39 10.7605 11.8888 11.0954C10.8199 11.8097 9.98676 12.8248 9.49479 14.0126C9.00282 15.2003 8.87409 16.5072 9.1249 17.7681C9.3757 19.029 9.99477 20.1872 10.9038 21.0962C11.8128 22.0052 12.971 22.6243 14.2319 22.8751C15.4928 23.1259 16.7997 22.9972 17.9874 22.5052C19.1752 22.0132 20.1903 21.1801 20.9046 20.1112C21.2395 19.61 21.5012 19.0674 21.6847 18.5C21.8925 17.8573 22 17.1827 22 16.5H20Z" fill="#4BA3F4"/>
<path d="M16.39 10.079C17.0567 10.4639 17.0567 11.4261 16.39 11.811L14.9725 12.6294C14.3058 13.0143 13.4725 12.5332 13.4725 11.7634V10.1266C13.4725 9.35681 14.3058 8.87568 14.9725 9.26058L16.39 10.079Z" fill="#4BA3F4"/>
</svg>
