<svg width="13" height="16" viewBox="0 0 13 16" fill="none" xmlns="http://www.w3.org/2000/svg">
<path fill-rule="evenodd" clip-rule="evenodd" d="M11 9.5C11 11.9773 8.99812 13.9871 6.52378 13.9999C6.5055 14 6.48722 14 6.46893 13.9999C3.99795 13.9832 2 11.9749 2 9.5C2 7.01472 4.01472 5 6.5 5V3C5.81726 3 5.14266 3.10752 4.5 3.31534C3.93257 3.49884 3.39003 3.76053 2.8888 4.09545C1.81988 4.80968 0.986756 5.82484 0.494786 7.01256C0.00281636 8.20028 -0.125905 9.50721 0.124899 10.7681C0.375703 12.029 0.994767 13.1872 1.90381 14.0962C2.81285 15.0052 3.97104 15.6243 5.23192 15.8751C6.49279 16.1259 7.79973 15.9972 8.98744 15.5052C10.1752 15.0132 11.1903 14.1801 11.9046 13.1112C12.2395 12.61 12.5012 12.0674 12.6847 11.5C12.8925 10.8573 13 10.1827 13 9.5H11Z" fill="black"/>
<path d="M7.39002 3.07897C8.05668 3.46387 8.05668 4.42613 7.39001 4.81103L5.97251 5.62942C5.30585 6.01432 4.47251 5.53319 4.47251 4.76339L4.47251 3.12661C4.47251 2.35681 5.30585 1.87568 5.97251 2.26058L7.39002 3.07897Z" fill="black"/>
</svg>
