<svg width="16" height="16" viewBox="0 0 16 16" fill="none" xmlns="http://www.w3.org/2000/svg">
<path fill-rule="evenodd" clip-rule="evenodd" d="M14.5865 2.96432C14.978 2.57483 14.9797 1.94166 14.5902 1.55011C14.2007 1.15857 13.5675 1.15691 13.176 1.5464L8.76949 5.92981L10.18 7.34773L14.5865 2.96432ZM7.24233 10.27L5.83184 8.85208L1.42537 13.2355C1.03382 13.625 1.03216 14.2581 1.42166 14.6497C1.81115 15.0412 2.44432 15.0429 2.83586 14.6534L7.24233 10.27Z" fill="#1A91FF"/>
<path d="M11.0447 4.06929C10.5159 3.50885 10.7964 2.58553 11.5487 2.41022L13.1356 2.0404C13.8855 1.86566 14.5421 2.56556 14.3186 3.30131L13.847 4.85336C13.6235 5.58912 12.6871 5.81012 12.1601 5.25152L11.0447 4.06929Z" fill="#1A91FF"/>
<path d="M5.18364 12.068C5.73791 12.6036 5.50053 13.5391 4.75713 13.7488L3.18967 14.191C2.44885 14.4 1.76065 13.731 1.94977 12.9857L2.34854 11.4143C2.53766 10.669 3.46259 10.4051 4.01495 10.9388L5.18364 12.068Z" fill="#1A91FF"/>
</svg>
