<svg width="32" height="32" viewBox="0 0 32 32" fill="none" xmlns="http://www.w3.org/2000/svg">
<rect width="32" height="32" rx="16" fill="#323232"/>
<path fill-rule="evenodd" clip-rule="evenodd" d="M22.5864 10.9643C22.9779 10.5748 22.9796 9.94167 22.5901 9.55012C22.2006 9.15857 21.5675 9.15691 21.1759 9.54641L16.7694 13.9298L18.1799 15.3477L22.5864 10.9643ZM15.2423 18.27L13.8318 16.8521L9.42531 21.2355C9.03376 21.625 9.0321 22.2582 9.42159 22.6497C9.81109 23.0412 10.4443 23.0429 10.8358 22.6534L15.2423 18.27Z" fill="white"/>
<path d="M19.0447 12.0693C18.5159 11.5088 18.7964 10.5855 19.5487 10.4102L21.1356 10.0404C21.8855 9.86566 22.5421 10.5656 22.3186 11.3013L21.847 12.8534C21.6235 13.5891 20.6871 13.8101 20.1601 13.2515L19.0447 12.0693Z" fill="white"/>
<path d="M13.1836 20.068C13.7379 20.6036 13.5005 21.5391 12.7571 21.7488L11.1897 22.191C10.4488 22.4 9.76065 21.731 9.94977 20.9857L10.3485 19.4143C10.5377 18.669 11.4626 18.405 12.015 18.9388L13.1836 20.068Z" fill="white"/>
</svg>
