<svg width="16" height="16" viewBox="0 0 16 16" fill="none" xmlns="http://www.w3.org/2000/svg">
<path d="M8 1.26316V14.7368" stroke="black" stroke-width="2" stroke-linecap="round"/>
<path d="M7.13396 1.5C7.51886 0.833333 8.48111 0.833333 8.86601 1.5L9.68645 2.92105C10.0714 3.58772 9.59023 4.42105 8.82043 4.42105H7.17953C6.40973 4.42105 5.92861 3.58772 6.31351 2.92105L7.13396 1.5Z" fill="black"/>
<path d="M8.86604 14.5C8.48114 15.1667 7.51889 15.1667 7.13399 14.5L6.31355 13.0789C5.92865 12.4123 6.40977 11.5789 7.17957 11.5789H8.82047C9.59027 11.5789 10.0714 12.4123 9.68649 13.0789L8.86604 14.5Z" fill="black"/>
<path d="M1.26318 8H14.7369" stroke="black" stroke-width="2" stroke-linecap="round"/>
<path d="M1.5 8.86603C0.833333 8.48113 0.833333 7.51888 1.5 7.13398L2.92105 6.31353C3.58772 5.92863 4.42105 6.40976 4.42105 7.17956V8.82045C4.42105 9.59025 3.58772 10.0714 2.92105 9.68647L1.5 8.86603Z" fill="black"/>
<path d="M14.5 7.13397C15.1667 7.51887 15.1667 8.48112 14.5 8.86602L13.0789 9.68647C12.4123 10.0714 11.5789 9.59024 11.5789 8.82044V7.17955C11.5789 6.40975 12.4123 5.92863 13.0789 6.31353L14.5 7.13397Z" fill="black"/>
</svg>
